<svg xmlns="http://www.w3.org/2000/svg" viewBox="0 0 77 73"><path fill="#F9EEDD" d="M70.1 15.4L60 7H18L7.9 15.4"/><path fill="#EED7BD" d="M68.9 66H9.1C8 66 7 65 7 63.9V17.1C7 16 8 15 9.1 15h59.8c1.2 0 2.1 1 2.1 2.1v46.8c0 1.1-1 2.1-2.1 2.1z"/><path fill="#D3A7A8" d="M7 60h64v6H7z"/><path fill="#EC7799" stroke="#7C5895" stroke-width="2" stroke-linecap="round" stroke-linejoin="round" stroke-miterlimit="10" d="M32.4 15v14H45V15l-2.2-8h-8.2z"/><path fill="none" stroke="#7C5895" stroke-width="2" stroke-linecap="round" stroke-linejoin="round" stroke-miterlimit="10" d="M68.9 66H9.1C8 66 7 65 7 63.9V17.1C7 16 8 15 9.1 15h59.8c1.2 0 2.1 1 2.1 2.1v46.8c0 1.1-1 2.1-2.1 2.1z"/><path fill="none" stroke="#7C5895" stroke-width="2" stroke-linecap="round" stroke-linejoin="round" stroke-miterlimit="10" d="M70.1 15.4L60 7H18L7.9 15.4M12 58v4m6-4v4m6-4v4m6-4v4m6-4v4m6-4v4m6-4v4m6-4v4m6-4v4m6-4v4M39 44v7c0 4-5 4-5 0"/><path fill="#85CAF7" stroke="#7C5895" stroke-width="2" stroke-linecap="round" stroke-linejoin="round" stroke-miterlimit="10" d="M31 44h16s-1-8-8-8-8 8-8 8zm-17-8v8c0 2.5 2.7 3.7 5.5 3.8 2.8 0 5.5-1.2 5.5-3.8v-8H14z"/><path fill="none" stroke="#7C5895" stroke-width="2" stroke-linecap="round" stroke-linejoin="round" stroke-miterlimit="10" d="M16 54h7m-3.5 0v-6"/></svg>