<?xml version="1.0" encoding="utf-8"?>
<!-- Generator: Adobe Illustrator 21.1.0, SVG Export Plug-In . SVG Version: 6.00 Build 0)  -->
<svg version="1.1" xmlns="http://www.w3.org/2000/svg" xmlns:xlink="http://www.w3.org/1999/xlink" x="0px" y="0px"
	 viewBox="0 0 77 73" enable-background="new 0 0 77 73" xml:space="preserve">
<g id="Слой_1" display="none">
	
		<image display="inline" overflow="visible" width="66" height="61" xlink:href="A344AF83.jpg"  transform="matrix(0.9999 0 0 0.9999 6 6)">
	</image>
</g>
<g id="_x31_">
	<polyline fill="#F9EEDD" points="70.1,15.4 60,7 34.6,7 18,7 7.9,15.4 	"/>
	<path fill="#EED7BD" d="M68.9,66H9.1C8,66,7,65,7,63.9V17.1C7,16,8,15,9.1,15h59.8c1.2,0,2.1,1,2.1,2.1v46.8C71,65,70,66,68.9,66z"
		/>
	<rect x="7" y="60" fill="#D3A7A8" width="64" height="6"/>
	
		<polygon fill="#EC7799" stroke="#7C5895" stroke-width="2" stroke-linecap="round" stroke-linejoin="round" stroke-miterlimit="10" points="
		32.4,15 32.4,29 45,29 45,15 42.8,7 34.6,7 	"/>
	<path fill="none" stroke="#7C5895" stroke-width="2" stroke-linecap="round" stroke-linejoin="round" stroke-miterlimit="10" d="
		M68.9,66H9.1C8,66,7,65,7,63.9V17.1C7,16,8,15,9.1,15h59.8c1.2,0,2.1,1,2.1,2.1v46.8C71,65,70,66,68.9,66z"/>
	
		<polyline fill="none" stroke="#7C5895" stroke-width="2" stroke-linecap="round" stroke-linejoin="round" stroke-miterlimit="10" points="
		70.1,15.4 60,7 34.6,7 18,7 7.9,15.4 	"/>
	
		<line fill="none" stroke="#7C5895" stroke-width="2" stroke-linecap="round" stroke-linejoin="round" stroke-miterlimit="10" x1="12" y1="58" x2="12" y2="62"/>
	
		<line fill="none" stroke="#7C5895" stroke-width="2" stroke-linecap="round" stroke-linejoin="round" stroke-miterlimit="10" x1="18" y1="58" x2="18" y2="62"/>
	
		<line fill="none" stroke="#7C5895" stroke-width="2" stroke-linecap="round" stroke-linejoin="round" stroke-miterlimit="10" x1="24" y1="58" x2="24" y2="62"/>
	
		<line fill="none" stroke="#7C5895" stroke-width="2" stroke-linecap="round" stroke-linejoin="round" stroke-miterlimit="10" x1="30" y1="58" x2="30" y2="62"/>
	
		<line fill="none" stroke="#7C5895" stroke-width="2" stroke-linecap="round" stroke-linejoin="round" stroke-miterlimit="10" x1="36" y1="58" x2="36" y2="62"/>
	
		<line fill="none" stroke="#7C5895" stroke-width="2" stroke-linecap="round" stroke-linejoin="round" stroke-miterlimit="10" x1="42" y1="58" x2="42" y2="62"/>
	
		<line fill="none" stroke="#7C5895" stroke-width="2" stroke-linecap="round" stroke-linejoin="round" stroke-miterlimit="10" x1="48" y1="58" x2="48" y2="62"/>
	
		<line fill="none" stroke="#7C5895" stroke-width="2" stroke-linecap="round" stroke-linejoin="round" stroke-miterlimit="10" x1="54" y1="58" x2="54" y2="62"/>
	
		<line fill="none" stroke="#7C5895" stroke-width="2" stroke-linecap="round" stroke-linejoin="round" stroke-miterlimit="10" x1="60" y1="58" x2="60" y2="62"/>
	
		<line fill="none" stroke="#7C5895" stroke-width="2" stroke-linecap="round" stroke-linejoin="round" stroke-miterlimit="10" x1="66" y1="58" x2="66" y2="62"/>
	<path fill="none" stroke="#7C5895" stroke-width="2" stroke-linecap="round" stroke-linejoin="round" stroke-miterlimit="10" d="
		M39,44c0,0,0,2.3,0,7c0,4-5,4-5,0"/>
	
		<path fill="#85CAF7" stroke="#7C5895" stroke-width="2" stroke-linecap="round" stroke-linejoin="round" stroke-miterlimit="10" d="
		M31,44h16c0,0-1-8-8-8S31,44,31,44z"/>
	
		<path fill="#85CAF7" stroke="#7C5895" stroke-width="2" stroke-linecap="round" stroke-linejoin="round" stroke-miterlimit="10" d="
		M14,36c0,0,0,3,0,8c0,2.5,2.7,3.7,5.5,3.8c2.8,0,5.5-1.2,5.5-3.8c0-5,0-8,0-8H14z"/>
	
		<line fill="none" stroke="#7C5895" stroke-width="2" stroke-linecap="round" stroke-linejoin="round" stroke-miterlimit="10" x1="16" y1="54" x2="23" y2="54"/>
	
		<line fill="none" stroke="#7C5895" stroke-width="2" stroke-linecap="round" stroke-linejoin="round" stroke-miterlimit="10" x1="19.5" y1="54" x2="19.5" y2="48"/>
</g>
</svg>
