<svg xmlns="http://www.w3.org/2000/svg" viewBox="0 0 77 73"><path fill="#EC7799" stroke="#7C5895" stroke-width="2" stroke-linecap="round" stroke-linejoin="round" stroke-miterlimit="10" d="M67.7 44.1c.1-.3.2-.6.2-.9.2-.9.7-1.6 1.3-2.3l4.5-4.5-4.5-4.4c-.6-.6-1.1-1.4-1.3-2.3-.2-.8-.4-1.5-.7-2.3-.3-.8-.3-1.7-.1-2.6l1.4-6.2-6.2-1.4c-.9-.2-1.8-.7-2.4-1.4-.7-.7-1.2-1.5-1.5-2.4l-1.7-6.2L50.5 9c-.9.2-1.8.3-2.6 0-.3 0-.6-.1-.9-.2-.9-.2-1.6-.7-2.3-1.3L40.3 3l-4.5 4.5c-.6.6-1.4 1.1-2.3 1.3-.8.2-1.5.4-2.3.7-.8.3-1.7.3-2.6.1l-6.2-1.4-1.4 6.2c-.2.9-.7 1.8-1.4 2.4-.7.7-1.5 1.2-2.4 1.5L11 20l1.7 6.2c.2.9.3 1.8 0 2.6-.1.3-.2.6-.2.9-.2.9-.7 1.6-1.3 2.3l-4.5 4.5 4.5 4.5c.6.6 1.1 1.4 1.3 2.3.2.8.4 1.5.7 2.3.3.8.3 1.7.1 2.6l-1.4 6.2 6.2 1.4c.9.2 1.8.7 2.4 1.4.7.7 1.2 1.5 1.5 2.4l1.7 6.2L30 64c.9-.2 1.8-.3 2.6 0 .3.1.6.2.9.2.9.2 1.6.7 2.3 1.3l4.5 4.5 4.5-4.5c.6-.6 1.4-1.1 2.3-1.3.8-.2 1.5-.4 2.3-.7.8-.3 1.7-.3 2.6-.1l6.2 1.4 1.4-6.2c.2-.9.7-1.8 1.4-2.4.7-.7 1.5-1.2 2.4-1.5l6.2-1.7-1.7-6.2c-.4-.9-.4-1.8-.2-2.7z"/><path d="M40 13v4m0 39v4M16.5 36.5h4m39 0h4M23.4 19.9l2.8 2.8m27.6 27.6l2.8 2.8m-33.2 0l2.8-2.8m27.6-27.6l2.8-2.8m-22.3-6.2l1 3.9m9.4 37.8l1 3.9M17.2 42.2l3.9-1m37.8-9.4l3.9-1m-43-6.4l3.5 2.1m33.4 20l3.5 2.1m-32.3 8.1l2.1-3.5m20-33.4l2.1-3.5M28.4 16l2 3.5m19.2 34l2 3.5m-32.1-8.9l3.5-2m34-19.2l3.5-2m-43.1 5.3l3.8 1.1m37.6 10.4l3.8 1.1M33.7 59.1l1.1-3.8m10.4-37.6l1.1-3.8" fill="none" stroke="#7C5895" stroke-width="2" stroke-linecap="round" stroke-linejoin="round" stroke-miterlimit="10"/><text transform="translate(25.441 46.917)" fill="#FFF" font-family="'MyriadPro-Bold'" font-size="32.158">%</text></svg>