<svg xmlns="http://www.w3.org/2000/svg" viewBox="0 0 77 73"><path fill="none" stroke="#7C5895" stroke-width="2" stroke-linecap="round" stroke-linejoin="round" stroke-miterlimit="10" d="M51 23V10"/><path fill="#C99AA2" d="M51 33l8-4-1-6-1-1-6.9 1.4v-12S43 14 35 15s-15.9-2.3-15.9-2.3"/><path fill="#C99AA2" d="M16 9v56s7 5 21 5l2-12 3 12s6-1 9-5V33"/><path fill="#DDB3B9" d="M23.5 14v54.2L16 65V11z"/><ellipse fill="#EED7BD" stroke="#7C5895" stroke-width="2" stroke-linecap="round" stroke-linejoin="round" stroke-miterlimit="10" cx="33.5" cy="9.7" rx="17.5" ry="5.3"/><path fill="#EED7BD" stroke="#7C5895" stroke-width="2" stroke-linecap="round" stroke-linejoin="round" stroke-miterlimit="10" d="M22 10.7C22 9.2 31.7 8 36.5 8"/><path fill="none" stroke="#7C5895" stroke-width="2" stroke-linecap="round" stroke-linejoin="round" stroke-miterlimit="10" d="M16 10v55s7 5 21 5l2-12 2 12s7-1 10-5V34"/><ellipse fill="#EED7BD" stroke="#7C5895" stroke-width="2" stroke-linecap="round" stroke-linejoin="round" stroke-miterlimit="10" cx="59" cy="25.5" rx="3" ry="3.5"/><path fill="none" stroke="#7C5895" stroke-width="2" stroke-linecap="round" stroke-linejoin="round" stroke-miterlimit="10" d="M46 24l13-2M45 36l15-7.2M21 21h4m0 6h4m4 5h4m-1 6h3m-14 5h5m8 6h5m-15 6h3m-8 5h4"/></svg>