<svg xmlns="http://www.w3.org/2000/svg" viewBox="0 0 77 73"><path fill="#F8E0AB" stroke="#7C5895" stroke-width="2" stroke-linecap="round" stroke-linejoin="round" stroke-miterlimit="10" d="M40.8 52s12.3-13 16.3-26c2.4-7.7 3.3-13.3 3.7-16.6.2-1.8-1.2-3.4-3-3.4H16.3c-1.8 0-3.2 1.6-3 3.4.4 3.3 1.4 8.9 3.7 16.6 4 13 16.3 26 16.3 26"/><path fill="#FFF8AE" stroke="#7C5895" stroke-width="2" stroke-linecap="round" stroke-linejoin="round" stroke-miterlimit="10" d="M55.5 68h-37c-1.4 0-2.5-1.1-2.5-2.5s1.1-2.5 2.5-2.5h37c1.4 0 2.5 1.1 2.5 2.5S56.9 68 55.5 68z"/><path fill="#CFA3A6" stroke="#7C5895" stroke-width="2" stroke-linecap="round" stroke-linejoin="round" stroke-miterlimit="10" d="M49.2 52H24.8c-2.1 0-3.8 1.7-3.8 3.8V63h32v-7.2c0-2.1-1.7-3.8-3.8-3.8z"/><path d="M25 55v4m6-4v4m6-4v4m6-4v4m6-4v4M13.5 11.2H46m4-.2h5m-40.7 4.8S10 13 6 15s-7.7 13.9 12.7 15.4m41.5-14.6s4.3-2.8 8.3-.8 7.7 13.9-12.7 15.4" fill="none" stroke="#7C5895" stroke-width="2" stroke-linecap="round" stroke-linejoin="round" stroke-miterlimit="10"/><text transform="translate(29.625 38.25)" fill="#7C5895" font-family="'MyriadPro-Bold'" font-size="32.158">3</text></svg>