<?xml version="1.0" encoding="utf-8"?>
<!-- Generator: Adobe Illustrator 21.1.0, SVG Export Plug-In . SVG Version: 6.00 Build 0)  -->
<svg version="1.1" xmlns="http://www.w3.org/2000/svg" xmlns:xlink="http://www.w3.org/1999/xlink" x="0px" y="0px"
	 viewBox="0 0 77 73" enable-background="new 0 0 77 73" xml:space="preserve">
<g id="Слой_1" display="none">
	
		<image display="inline" overflow="visible" width="76" height="63" xlink:href="E86D1736.jpg"  transform="matrix(0.9999 0 0 0.9999 1 6)">
	</image>
</g>
<g id="_x31_" display="none">
	<polyline display="inline" fill="#F9EEDD" points="70.1,15.4 60,7 34.6,7 18,7 7.9,15.4 	"/>
	<path display="inline" fill="#EED7BD" d="M68.9,66H9.1C8,66,7,65,7,63.9V17.1C7,16,8,15,9.1,15h59.8c1.2,0,2.1,1,2.1,2.1v46.8
		C71,65,70,66,68.9,66z"/>
	<rect x="7" y="60" display="inline" fill="#D3A7A8" width="64" height="6"/>
	
		<polygon display="inline" fill="#EC7799" stroke="#7C5895" stroke-width="2" stroke-linecap="round" stroke-linejoin="round" stroke-miterlimit="10" points="
		32.4,15 32.4,29 45,29 45,15 42.8,7 34.6,7 	"/>
	
		<path display="inline" fill="none" stroke="#7C5895" stroke-width="2" stroke-linecap="round" stroke-linejoin="round" stroke-miterlimit="10" d="
		M68.9,66H9.1C8,66,7,65,7,63.9V17.1C7,16,8,15,9.1,15h59.8c1.2,0,2.1,1,2.1,2.1v46.8C71,65,70,66,68.9,66z"/>
	
		<polyline display="inline" fill="none" stroke="#7C5895" stroke-width="2" stroke-linecap="round" stroke-linejoin="round" stroke-miterlimit="10" points="
		70.1,15.4 60,7 34.6,7 18,7 7.9,15.4 	"/>
	
		<line display="inline" fill="none" stroke="#7C5895" stroke-width="2" stroke-linecap="round" stroke-linejoin="round" stroke-miterlimit="10" x1="12" y1="58" x2="12" y2="62"/>
	
		<line display="inline" fill="none" stroke="#7C5895" stroke-width="2" stroke-linecap="round" stroke-linejoin="round" stroke-miterlimit="10" x1="18" y1="58" x2="18" y2="62"/>
	
		<line display="inline" fill="none" stroke="#7C5895" stroke-width="2" stroke-linecap="round" stroke-linejoin="round" stroke-miterlimit="10" x1="24" y1="58" x2="24" y2="62"/>
	
		<line display="inline" fill="none" stroke="#7C5895" stroke-width="2" stroke-linecap="round" stroke-linejoin="round" stroke-miterlimit="10" x1="30" y1="58" x2="30" y2="62"/>
	
		<line display="inline" fill="none" stroke="#7C5895" stroke-width="2" stroke-linecap="round" stroke-linejoin="round" stroke-miterlimit="10" x1="36" y1="58" x2="36" y2="62"/>
	
		<line display="inline" fill="none" stroke="#7C5895" stroke-width="2" stroke-linecap="round" stroke-linejoin="round" stroke-miterlimit="10" x1="42" y1="58" x2="42" y2="62"/>
	
		<line display="inline" fill="none" stroke="#7C5895" stroke-width="2" stroke-linecap="round" stroke-linejoin="round" stroke-miterlimit="10" x1="48" y1="58" x2="48" y2="62"/>
	
		<line display="inline" fill="none" stroke="#7C5895" stroke-width="2" stroke-linecap="round" stroke-linejoin="round" stroke-miterlimit="10" x1="54" y1="58" x2="54" y2="62"/>
	
		<line display="inline" fill="none" stroke="#7C5895" stroke-width="2" stroke-linecap="round" stroke-linejoin="round" stroke-miterlimit="10" x1="60" y1="58" x2="60" y2="62"/>
	
		<line display="inline" fill="none" stroke="#7C5895" stroke-width="2" stroke-linecap="round" stroke-linejoin="round" stroke-miterlimit="10" x1="66" y1="58" x2="66" y2="62"/>
	
		<path display="inline" fill="none" stroke="#7C5895" stroke-width="2" stroke-linecap="round" stroke-linejoin="round" stroke-miterlimit="10" d="
		M39,44c0,0,0,2.3,0,7c0,4-5,4-5,0"/>
	
		<path display="inline" fill="#85CAF7" stroke="#7C5895" stroke-width="2" stroke-linecap="round" stroke-linejoin="round" stroke-miterlimit="10" d="
		M31,44h16c0,0-1-8-8-8S31,44,31,44z"/>
	
		<path display="inline" fill="#85CAF7" stroke="#7C5895" stroke-width="2" stroke-linecap="round" stroke-linejoin="round" stroke-miterlimit="10" d="
		M14,36c0,0,0,3,0,8c0,2.5,2.7,3.7,5.5,3.8c2.8,0,5.5-1.2,5.5-3.8c0-5,0-8,0-8H14z"/>
	
		<line display="inline" fill="none" stroke="#7C5895" stroke-width="2" stroke-linecap="round" stroke-linejoin="round" stroke-miterlimit="10" x1="16" y1="54" x2="23" y2="54"/>
	
		<line display="inline" fill="none" stroke="#7C5895" stroke-width="2" stroke-linecap="round" stroke-linejoin="round" stroke-miterlimit="10" x1="19.5" y1="54" x2="19.5" y2="48"/>
</g>
<g id="_x32_">
	
		<path fill="#F9EEDD" stroke="#7C5895" stroke-width="2" stroke-linecap="round" stroke-linejoin="round" stroke-miterlimit="10" d="
		M62.5,17v-6.7C62.5,8.5,61,7,59.2,7H5.3C3.5,7,2,8.5,2,10.3V17"/>
	<path fill="#CCA0A6" d="M2,17v46.6C2,65.5,3.5,67,5.4,67h64.3c1.9,0,3.4-1.5,3.4-3.4V20.4c0-1.9-1.5-3.4-3.4-3.4H6c0,0-4,0.1-4-3.4
		"/>
	<path fill="#C4939C" d="M2,17v46.6C2,65.5,2.2,67,2.5,67h9c0.3,0,0.5-1.5,0.5-3.4V17c0-1.9-0.2,0-0.5,0h-9c0,0-0.6,0.1-0.6-3.4"/>
	<path fill="none" stroke="#7C5895" stroke-width="2" stroke-linecap="round" stroke-linejoin="round" stroke-miterlimit="10" d="
		M2,17v46.6C2,65.5,3.5,67,5.4,67h64.3c1.9,0,3.4-1.5,3.4-3.4V20.4c0-1.9-1.5-3.4-3.4-3.4H6c0,0-4,0.1-4-3.4"/>
	
		<path fill="#F8E2AE" stroke="#7C5895" stroke-width="2" stroke-linecap="round" stroke-linejoin="round" stroke-miterlimit="10" d="
		M72.9,50H58c-4.4,0-8-3.6-8-8v0c0-4.4,3.6-8,8-8h14.9c1.7,0,3.1,1.4,3.1,3.1v9.9C76,48.6,74.6,50,72.9,50z"/>
	
		<circle fill="#BEE7FF" stroke="#7C5895" stroke-width="2" stroke-linecap="round" stroke-linejoin="round" stroke-miterlimit="10" cx="60" cy="42" r="4"/>
	
		<line fill="none" stroke="#7C5895" stroke-width="2" stroke-linecap="round" stroke-linejoin="round" stroke-miterlimit="10" x1="10" y1="21" x2="10" y2="26"/>
	
		<line fill="none" stroke="#7C5895" stroke-width="2" stroke-linecap="round" stroke-linejoin="round" stroke-miterlimit="10" x1="17" y1="21" x2="17" y2="26"/>
	
		<line fill="none" stroke="#7C5895" stroke-width="2" stroke-linecap="round" stroke-linejoin="round" stroke-miterlimit="10" x1="24" y1="21" x2="24" y2="26"/>
	
		<line fill="none" stroke="#7C5895" stroke-width="2" stroke-linecap="round" stroke-linejoin="round" stroke-miterlimit="10" x1="31" y1="21" x2="31" y2="26"/>
	
		<line fill="none" stroke="#7C5895" stroke-width="2" stroke-linecap="round" stroke-linejoin="round" stroke-miterlimit="10" x1="38" y1="21" x2="38" y2="26"/>
	
		<line fill="none" stroke="#7C5895" stroke-width="2" stroke-linecap="round" stroke-linejoin="round" stroke-miterlimit="10" x1="45" y1="21" x2="45" y2="26"/>
	
		<line fill="none" stroke="#7C5895" stroke-width="2" stroke-linecap="round" stroke-linejoin="round" stroke-miterlimit="10" x1="52" y1="21" x2="52" y2="26"/>
	
		<line fill="none" stroke="#7C5895" stroke-width="2" stroke-linecap="round" stroke-linejoin="round" stroke-miterlimit="10" x1="59" y1="21" x2="59" y2="26"/>
	
		<line fill="none" stroke="#7C5895" stroke-width="2" stroke-linecap="round" stroke-linejoin="round" stroke-miterlimit="10" x1="66" y1="21" x2="66" y2="26"/>
	
		<line fill="none" stroke="#7C5895" stroke-width="2" stroke-linecap="round" stroke-linejoin="round" stroke-miterlimit="10" x1="10" y1="58" x2="10" y2="63"/>
	
		<line fill="none" stroke="#7C5895" stroke-width="2" stroke-linecap="round" stroke-linejoin="round" stroke-miterlimit="10" x1="17" y1="58" x2="17" y2="63"/>
	
		<line fill="none" stroke="#7C5895" stroke-width="2" stroke-linecap="round" stroke-linejoin="round" stroke-miterlimit="10" x1="24" y1="58" x2="24" y2="63"/>
	
		<line fill="none" stroke="#7C5895" stroke-width="2" stroke-linecap="round" stroke-linejoin="round" stroke-miterlimit="10" x1="31" y1="58" x2="31" y2="63"/>
	
		<line fill="none" stroke="#7C5895" stroke-width="2" stroke-linecap="round" stroke-linejoin="round" stroke-miterlimit="10" x1="38" y1="58" x2="38" y2="63"/>
	
		<line fill="none" stroke="#7C5895" stroke-width="2" stroke-linecap="round" stroke-linejoin="round" stroke-miterlimit="10" x1="45" y1="58" x2="45" y2="63"/>
	
		<line fill="none" stroke="#7C5895" stroke-width="2" stroke-linecap="round" stroke-linejoin="round" stroke-miterlimit="10" x1="52" y1="58" x2="52" y2="63"/>
	
		<line fill="none" stroke="#7C5895" stroke-width="2" stroke-linecap="round" stroke-linejoin="round" stroke-miterlimit="10" x1="59" y1="58" x2="59" y2="63"/>
	
		<line fill="none" stroke="#7C5895" stroke-width="2" stroke-linecap="round" stroke-linejoin="round" stroke-miterlimit="10" x1="66" y1="58" x2="66" y2="63"/>
	
		<line fill="none" stroke="#7C5895" stroke-width="2" stroke-linecap="round" stroke-linejoin="round" stroke-miterlimit="10" x1="7" y1="12" x2="41" y2="12"/>
	
		<line fill="none" stroke="#7C5895" stroke-width="2" stroke-linecap="round" stroke-linejoin="round" stroke-miterlimit="10" x1="46" y1="12" x2="53" y2="12"/>
</g>
</svg>
