<svg xmlns="http://www.w3.org/2000/svg" viewBox="0 0 77 73"><path fill="#F9EEDD" stroke="#7C5895" stroke-width="2" stroke-linecap="round" stroke-linejoin="round" stroke-miterlimit="10" d="M62.5 17v-6.7C62.5 8.5 61 7 59.2 7H5.3C3.5 7 2 8.5 2 10.3V17"/><path fill="#CCA0A6" d="M2 17v46.6C2 65.5 3.5 67 5.4 67h64.3c1.9 0 3.4-1.5 3.4-3.4V20.4c0-1.9-1.5-3.4-3.4-3.4H6s-4 .1-4-3.4"/><path fill="#C4939C" d="M2 17v46.6c0 1.9.2 3.4.5 3.4h9c.3 0 .5-1.5.5-3.4V17c0-1.9-.2 0-.5 0h-9s-.6.1-.6-3.4"/><path fill="none" stroke="#7C5895" stroke-width="2" stroke-linecap="round" stroke-linejoin="round" stroke-miterlimit="10" d="M2 17v46.6C2 65.5 3.5 67 5.4 67h64.3c1.9 0 3.4-1.5 3.4-3.4V20.4c0-1.9-1.5-3.4-3.4-3.4H6s-4 .1-4-3.4"/><path fill="#F8E2AE" stroke="#7C5895" stroke-width="2" stroke-linecap="round" stroke-linejoin="round" stroke-miterlimit="10" d="M72.9 50H58c-4.4 0-8-3.6-8-8s3.6-8 8-8h14.9c1.7 0 3.1 1.4 3.1 3.1V47c0 1.6-1.4 3-3.1 3z"/><circle fill="#BEE7FF" stroke="#7C5895" stroke-width="2" stroke-linecap="round" stroke-linejoin="round" stroke-miterlimit="10" cx="60" cy="42" r="4"/><path fill="none" stroke="#7C5895" stroke-width="2" stroke-linecap="round" stroke-linejoin="round" stroke-miterlimit="10" d="M10 21v5m7-5v5m7-5v5m7-5v5m7-5v5m7-5v5m7-5v5m7-5v5m7-5v5M10 58v5m7-5v5m7-5v5m7-5v5m7-5v5m7-5v5m7-5v5m7-5v5m7-5v5M7 12h34m5 0h7"/></svg>