<svg xmlns="http://www.w3.org/2000/svg" viewBox="0 0 77 73"><path fill="#F8E2AD" d="M23.4 55.4C52.4 80 67.3 69 71 63.4c3.7-5.6.7-10.8.7-10.8l-18.5-5-7 7.8C37.4 52.6 31 46.9 31 46.9s-6.4-5.7-10.3-14.2l7-7.8-7.1-17.8s-5.5-2.4-10.7 2-14.3 20.3 13.5 46.3"/><path fill="#F5CF93" d="M5.4 15.7s8.1 26.2 25.2 38.5 33.2 14.9 33.2 14.9-14 8.6-37.4-11.2S3.6 22.3 5.2 16.4"/><path fill="#FFF" d="M14.7 7L24 29l3.8-4.2-7.6-18.1S16 5.5 14.7 7zm57.7 51.3l-22.8-7 3.8-4.2 18.8 5.7s1.6 4.1.2 5.5z"/><path fill="none" stroke="#7C5895" stroke-width="2" stroke-linecap="round" stroke-linejoin="round" stroke-miterlimit="10" d="M24 29L14.6 6.7m8.8 48.7C52.4 80 67.3 69 71 63.4c3.7-5.6.7-10.8.7-10.8l-18.5-5-7 7.8C37.4 52.6 31 46.9 31 46.9s-6.4-5.7-10.3-14.2l7-7.8-7.1-17.8s-5.5-2.4-10.7 2-14.3 20.3 13.5 46.3m49.4 3.2l-23.2-6.8m-25.9-7c3 3.5 7.7 7.8 14.7 12.4M18.3 36.9s.6 1.7 2.6 4.5m6.4-34.7L32.4 1m.4 18.2l7.4.2m-8.5-7.6l9.2-3.2"/></svg>