<svg xmlns="http://www.w3.org/2000/svg" viewBox="0 0 77 73"><path fill="#F8E2AD" d="M71.4 26H40.6c-2 0-3.6 1.6-3.6 3.6v26.9c0 2 1.6 3.6 3.6 3.6h15c1 2.8 4 7.9 12.5 10-2.8-3.9-3.4-7.4-3.4-10h6.8c2 0 3.6-1.6 3.6-3.6V29.6c-.1-2-1.7-3.6-3.7-3.6z"/><path fill="none" stroke="#7C5895" stroke-width="2" stroke-linecap="round" stroke-linejoin="round" stroke-miterlimit="10" d="M71.4 26H40.6c-2 0-3.6 1.6-3.6 3.6v26.9c0 2 1.6 3.6 3.6 3.6h15c1 2.8 4 7.9 12.5 10-2.8-3.9-3.4-7.4-3.4-10h6.8c2 0 3.6-1.6 3.6-3.6V29.6c-.1-2-1.7-3.6-3.7-3.6z"/><path fill="#C7D2E9" d="M61.5 4h-55C4 4 2 6 2 8.5v37C2 48 4 50 6.5 50h7.9c0 3-.6 7.1-3.4 11 7.8-2.3 12.5-6.5 14.7-11h35.8c2.5 0 4.5-2 4.5-4.5v-37C66 6 64 4 61.5 4z"/><path fill="#ABB6CF" d="M2 42.5v3C2 48 4 50 6.5 50h7.9c0 3-.6 7.1-3.4 11 7.8-2.3 12.5-6.5 14.7-11h35.8c2.5 0 4.5-2 4.5-4.5v-3"/><path fill="none" stroke="#7C5895" stroke-width="2" stroke-linecap="round" stroke-linejoin="round" stroke-miterlimit="10" d="M61.5 4h-55C4 4 2 6 2 8.5v37C2 48 4 50 6.5 50h7.9c0 3-.6 7.1-3.4 11 7.8-2.3 12.5-6.5 14.7-11h35.8c2.5 0 4.5-2 4.5-4.5v-37C66 6 64 4 61.5 4zM13 21h25m4 0h7m-36 8h31M7 41v4m6-4v4m6-4v4m6-4v4m6-4v4m6-4v4m6-4v4m6-4v4m6-4v4m6-4v4"/></svg>