<svg xmlns="http://www.w3.org/2000/svg" viewBox="0 0 77 73"><ellipse transform="rotate(-45.001 29.6 29.601)" fill="#FFEF98" cx="29.6" cy="29.6" rx="26.5" ry="26.5"/><ellipse transform="rotate(-45.001 29.6 29.601)" fill="none" stroke="#7C5895" stroke-width="2" stroke-linecap="round" stroke-linejoin="round" stroke-miterlimit="10" cx="29.6" cy="29.6" rx="26.5" ry="26.5"/><ellipse transform="rotate(-45.001 29.6 29.601)" fill="#BBDDF8" cx="29.6" cy="29.6" rx="19.5" ry="19.5"/><ellipse transform="rotate(-45.001 29.6 29.601)" fill="none" stroke="#7C5895" stroke-width="2" stroke-linecap="round" stroke-linejoin="round" stroke-miterlimit="10" cx="29.6" cy="29.6" rx="19.5" ry="19.5"/><ellipse transform="rotate(-45.001 29.6 29.601)" fill="#D1ECFE" cx="29.6" cy="29.6" rx="7.5" ry="7.5"/><ellipse transform="rotate(-45.001 26.065 26.065)" fill="#FFF" cx="26.1" cy="26.1" rx="4.5" ry="4.5"/><path fill="none" stroke="#7C5895" stroke-width="2" stroke-linecap="round" stroke-linejoin="round" stroke-miterlimit="10" d="M19.3 19.3c5.7-5.7 14.8-5.7 20.5 0"/><path fill="#CFA4A8" stroke="#7C5895" stroke-width="2" stroke-linecap="round" stroke-linejoin="round" stroke-miterlimit="10" d="M68.7 67.6l-1.8 1.8c-1.5 1.5-3.8 1.5-5.3 0L49.9 57.7c-1.5-1.5-1.5-3.8 0-5.3l1.8-1.8c1.5-1.5 3.8-1.5 5.3 0l11.7 11.7c1.4 1.5 1.4 3.8 0 5.3zM49 53.8l-3-3.1m7.3-1.1l-3.1-3.1m-8.8-16.9h3.8m-31.9 0h3.9M14.7 36l3.5-1.5m0 6.6l2.7-2.8m2.9 6.3l1.3-3.7m5 4.6l-.2-3.9m5.6 2.6L34 40.7m6.7 0L37.9 38m6.1-2.4l-3.6-1.5"/></svg>