<svg xmlns="http://www.w3.org/2000/svg" viewBox="0 0 77 73"><path fill="#CA9DA4" d="M70 26.2v-5.8c0-3-2.4-5.4-5.4-5.4H13.9c-3 0-5.4 2.4-5.4 5.4v5.7c-3.1.5-5.5 3.3-5.5 6.5v17.7C3 53.4 5.6 56 8.8 56h60.5c3.2 0 5.8-2.6 5.8-5.8V32.6c-.1-3.1-2.2-5.7-5.1-6.4z"/><path fill="#C8D9F0" stroke="#7C5895" stroke-width="2" stroke-linecap="round" stroke-linejoin="round" stroke-miterlimit="10" d="M11.6 56l-.4 4.5c-.1 1.4 1 2.5 2.3 2.5.9 0 1.7-.5 2.1-1.3l2.9-5.7m48.6 0l.4 4.5c.1 1.4-1 2.5-2.3 2.5-.9 0-1.7-.5-2.1-1.3L60.2 56"/><path fill="none" stroke="#7C5895" stroke-width="2" stroke-linecap="round" stroke-linejoin="round" stroke-miterlimit="10" d="M69.3 56H8.8C5.6 56 3 53.4 3 50.3V40h72v10.3c0 3.1-2.6 5.7-5.7 5.7zM3 40v-7.4C3 29 6 26 9.6 26h3.7c1.5 0 2.7 1.2 2.7 2.7V40m59 0v-7.4c0-3.7-3-6.6-6.6-6.6h-3.7c-1.5 0-2.7 1.2-2.7 2.7V40"/><path fill="none" stroke="#7C5895" stroke-width="2" stroke-linecap="round" stroke-linejoin="round" stroke-miterlimit="10" d="M8.5 26.1v-5.7c0-3 2.4-5.4 5.4-5.4h50.6c3 0 5.4 2.4 5.4 5.4v5.8M4 50.9h57m4 .1h5M24 33v3m6-3v3m6-3v3m6-3v3m6-3v3m6-3v3"/></svg>