<?xml version="1.0" encoding="utf-8"?>
<!-- Generator: Adobe Illustrator 21.1.0, SVG Export Plug-In . SVG Version: 6.00 Build 0)  -->
<svg version="1.1" xmlns="http://www.w3.org/2000/svg" xmlns:xlink="http://www.w3.org/1999/xlink" x="0px" y="0px"
	 viewBox="0 0 77 73" enable-background="new 0 0 77 73" xml:space="preserve">
<g id="Слой_1" display="none">
	
		<image display="inline" overflow="visible" width="72" height="65" xlink:href="BE0A8099.jpg"  transform="matrix(0.9999 0 0 0.9999 3 4)">
	</image>
</g>
<g id="_x31_" display="none">
	<polyline display="inline" fill="#F9EEDD" points="70.1,15.4 60,7 34.6,7 18,7 7.9,15.4 	"/>
	<path display="inline" fill="#EED7BD" d="M68.9,66H9.1C8,66,7,65,7,63.9V17.1C7,16,8,15,9.1,15h59.8c1.2,0,2.1,1,2.1,2.1v46.8
		C71,65,70,66,68.9,66z"/>
	<rect x="7" y="60" display="inline" fill="#D3A7A8" width="64" height="6"/>
	
		<polygon display="inline" fill="#EC7799" stroke="#7C5895" stroke-width="2" stroke-linecap="round" stroke-linejoin="round" stroke-miterlimit="10" points="
		32.4,15 32.4,29 45,29 45,15 42.8,7 34.6,7 	"/>
	
		<path display="inline" fill="none" stroke="#7C5895" stroke-width="2" stroke-linecap="round" stroke-linejoin="round" stroke-miterlimit="10" d="
		M68.9,66H9.1C8,66,7,65,7,63.9V17.1C7,16,8,15,9.1,15h59.8c1.2,0,2.1,1,2.1,2.1v46.8C71,65,70,66,68.9,66z"/>
	
		<polyline display="inline" fill="none" stroke="#7C5895" stroke-width="2" stroke-linecap="round" stroke-linejoin="round" stroke-miterlimit="10" points="
		70.1,15.4 60,7 34.6,7 18,7 7.9,15.4 	"/>
	
		<line display="inline" fill="none" stroke="#7C5895" stroke-width="2" stroke-linecap="round" stroke-linejoin="round" stroke-miterlimit="10" x1="12" y1="58" x2="12" y2="62"/>
	
		<line display="inline" fill="none" stroke="#7C5895" stroke-width="2" stroke-linecap="round" stroke-linejoin="round" stroke-miterlimit="10" x1="18" y1="58" x2="18" y2="62"/>
	
		<line display="inline" fill="none" stroke="#7C5895" stroke-width="2" stroke-linecap="round" stroke-linejoin="round" stroke-miterlimit="10" x1="24" y1="58" x2="24" y2="62"/>
	
		<line display="inline" fill="none" stroke="#7C5895" stroke-width="2" stroke-linecap="round" stroke-linejoin="round" stroke-miterlimit="10" x1="30" y1="58" x2="30" y2="62"/>
	
		<line display="inline" fill="none" stroke="#7C5895" stroke-width="2" stroke-linecap="round" stroke-linejoin="round" stroke-miterlimit="10" x1="36" y1="58" x2="36" y2="62"/>
	
		<line display="inline" fill="none" stroke="#7C5895" stroke-width="2" stroke-linecap="round" stroke-linejoin="round" stroke-miterlimit="10" x1="42" y1="58" x2="42" y2="62"/>
	
		<line display="inline" fill="none" stroke="#7C5895" stroke-width="2" stroke-linecap="round" stroke-linejoin="round" stroke-miterlimit="10" x1="48" y1="58" x2="48" y2="62"/>
	
		<line display="inline" fill="none" stroke="#7C5895" stroke-width="2" stroke-linecap="round" stroke-linejoin="round" stroke-miterlimit="10" x1="54" y1="58" x2="54" y2="62"/>
	
		<line display="inline" fill="none" stroke="#7C5895" stroke-width="2" stroke-linecap="round" stroke-linejoin="round" stroke-miterlimit="10" x1="60" y1="58" x2="60" y2="62"/>
	
		<line display="inline" fill="none" stroke="#7C5895" stroke-width="2" stroke-linecap="round" stroke-linejoin="round" stroke-miterlimit="10" x1="66" y1="58" x2="66" y2="62"/>
	
		<path display="inline" fill="none" stroke="#7C5895" stroke-width="2" stroke-linecap="round" stroke-linejoin="round" stroke-miterlimit="10" d="
		M39,44c0,0,0,2.3,0,7c0,4-5,4-5,0"/>
	
		<path display="inline" fill="#85CAF7" stroke="#7C5895" stroke-width="2" stroke-linecap="round" stroke-linejoin="round" stroke-miterlimit="10" d="
		M31,44h16c0,0-1-8-8-8S31,44,31,44z"/>
	
		<path display="inline" fill="#85CAF7" stroke="#7C5895" stroke-width="2" stroke-linecap="round" stroke-linejoin="round" stroke-miterlimit="10" d="
		M14,36c0,0,0,3,0,8c0,2.5,2.7,3.7,5.5,3.8c2.8,0,5.5-1.2,5.5-3.8c0-5,0-8,0-8H14z"/>
	
		<line display="inline" fill="none" stroke="#7C5895" stroke-width="2" stroke-linecap="round" stroke-linejoin="round" stroke-miterlimit="10" x1="16" y1="54" x2="23" y2="54"/>
	
		<line display="inline" fill="none" stroke="#7C5895" stroke-width="2" stroke-linecap="round" stroke-linejoin="round" stroke-miterlimit="10" x1="19.5" y1="54" x2="19.5" y2="48"/>
</g>
<g id="_x32_" display="none">
	
		<path display="inline" fill="#F9EEDD" stroke="#7C5895" stroke-width="2" stroke-linecap="round" stroke-linejoin="round" stroke-miterlimit="10" d="
		M62.5,17v-6.7C62.5,8.5,61,7,59.2,7H5.3C3.5,7,2,8.5,2,10.3V17"/>
	<path display="inline" fill="#CCA0A6" d="M2,17v46.6C2,65.5,3.5,67,5.4,67h64.3c1.9,0,3.4-1.5,3.4-3.4V20.4c0-1.9-1.5-3.4-3.4-3.4
		H6c0,0-4,0.1-4-3.4"/>
	<path display="inline" fill="#C4939C" d="M2,17v46.6C2,65.5,2.2,67,2.5,67h9c0.3,0,0.5-1.5,0.5-3.4V17c0-1.9-0.2,0-0.5,0h-9
		c0,0-0.6,0.1-0.6-3.4"/>
	
		<path display="inline" fill="none" stroke="#7C5895" stroke-width="2" stroke-linecap="round" stroke-linejoin="round" stroke-miterlimit="10" d="
		M2,17v46.6C2,65.5,3.5,67,5.4,67h64.3c1.9,0,3.4-1.5,3.4-3.4V20.4c0-1.9-1.5-3.4-3.4-3.4H6c0,0-4,0.1-4-3.4"/>
	
		<path display="inline" fill="#F8E2AE" stroke="#7C5895" stroke-width="2" stroke-linecap="round" stroke-linejoin="round" stroke-miterlimit="10" d="
		M72.9,50H58c-4.4,0-8-3.6-8-8v0c0-4.4,3.6-8,8-8h14.9c1.7,0,3.1,1.4,3.1,3.1v9.9C76,48.6,74.6,50,72.9,50z"/>
	
		<circle display="inline" fill="#BEE7FF" stroke="#7C5895" stroke-width="2" stroke-linecap="round" stroke-linejoin="round" stroke-miterlimit="10" cx="60" cy="42" r="4"/>
	
		<line display="inline" fill="none" stroke="#7C5895" stroke-width="2" stroke-linecap="round" stroke-linejoin="round" stroke-miterlimit="10" x1="10" y1="21" x2="10" y2="26"/>
	
		<line display="inline" fill="none" stroke="#7C5895" stroke-width="2" stroke-linecap="round" stroke-linejoin="round" stroke-miterlimit="10" x1="17" y1="21" x2="17" y2="26"/>
	
		<line display="inline" fill="none" stroke="#7C5895" stroke-width="2" stroke-linecap="round" stroke-linejoin="round" stroke-miterlimit="10" x1="24" y1="21" x2="24" y2="26"/>
	
		<line display="inline" fill="none" stroke="#7C5895" stroke-width="2" stroke-linecap="round" stroke-linejoin="round" stroke-miterlimit="10" x1="31" y1="21" x2="31" y2="26"/>
	
		<line display="inline" fill="none" stroke="#7C5895" stroke-width="2" stroke-linecap="round" stroke-linejoin="round" stroke-miterlimit="10" x1="38" y1="21" x2="38" y2="26"/>
	
		<line display="inline" fill="none" stroke="#7C5895" stroke-width="2" stroke-linecap="round" stroke-linejoin="round" stroke-miterlimit="10" x1="45" y1="21" x2="45" y2="26"/>
	
		<line display="inline" fill="none" stroke="#7C5895" stroke-width="2" stroke-linecap="round" stroke-linejoin="round" stroke-miterlimit="10" x1="52" y1="21" x2="52" y2="26"/>
	
		<line display="inline" fill="none" stroke="#7C5895" stroke-width="2" stroke-linecap="round" stroke-linejoin="round" stroke-miterlimit="10" x1="59" y1="21" x2="59" y2="26"/>
	
		<line display="inline" fill="none" stroke="#7C5895" stroke-width="2" stroke-linecap="round" stroke-linejoin="round" stroke-miterlimit="10" x1="66" y1="21" x2="66" y2="26"/>
	
		<line display="inline" fill="none" stroke="#7C5895" stroke-width="2" stroke-linecap="round" stroke-linejoin="round" stroke-miterlimit="10" x1="10" y1="58" x2="10" y2="63"/>
	
		<line display="inline" fill="none" stroke="#7C5895" stroke-width="2" stroke-linecap="round" stroke-linejoin="round" stroke-miterlimit="10" x1="17" y1="58" x2="17" y2="63"/>
	
		<line display="inline" fill="none" stroke="#7C5895" stroke-width="2" stroke-linecap="round" stroke-linejoin="round" stroke-miterlimit="10" x1="24" y1="58" x2="24" y2="63"/>
	
		<line display="inline" fill="none" stroke="#7C5895" stroke-width="2" stroke-linecap="round" stroke-linejoin="round" stroke-miterlimit="10" x1="31" y1="58" x2="31" y2="63"/>
	
		<line display="inline" fill="none" stroke="#7C5895" stroke-width="2" stroke-linecap="round" stroke-linejoin="round" stroke-miterlimit="10" x1="38" y1="58" x2="38" y2="63"/>
	
		<line display="inline" fill="none" stroke="#7C5895" stroke-width="2" stroke-linecap="round" stroke-linejoin="round" stroke-miterlimit="10" x1="45" y1="58" x2="45" y2="63"/>
	
		<line display="inline" fill="none" stroke="#7C5895" stroke-width="2" stroke-linecap="round" stroke-linejoin="round" stroke-miterlimit="10" x1="52" y1="58" x2="52" y2="63"/>
	
		<line display="inline" fill="none" stroke="#7C5895" stroke-width="2" stroke-linecap="round" stroke-linejoin="round" stroke-miterlimit="10" x1="59" y1="58" x2="59" y2="63"/>
	
		<line display="inline" fill="none" stroke="#7C5895" stroke-width="2" stroke-linecap="round" stroke-linejoin="round" stroke-miterlimit="10" x1="66" y1="58" x2="66" y2="63"/>
	
		<line display="inline" fill="none" stroke="#7C5895" stroke-width="2" stroke-linecap="round" stroke-linejoin="round" stroke-miterlimit="10" x1="7" y1="12" x2="41" y2="12"/>
	
		<line display="inline" fill="none" stroke="#7C5895" stroke-width="2" stroke-linecap="round" stroke-linejoin="round" stroke-miterlimit="10" x1="46" y1="12" x2="53" y2="12"/>
</g>
<g id="_x33_" display="none">
	<path display="inline" fill="#F8E2AD" d="M23.4,55.4c29,24.6,43.9,13.6,47.6,8c3.7-5.6,0.7-10.8,0.7-10.8l-18.5-5l-7,7.8
		C37.4,52.6,31,46.9,31,46.9s-6.4-5.7-10.3-14.2l7-7.8L20.6,7.1c0,0-5.5-2.4-10.7,2S-4.4,29.4,23.4,55.4"/>
	<path display="inline" fill="#F5CF93" d="M5.4,15.7c0,0,8.1,26.2,25.2,38.5s33.2,14.9,33.2,14.9s-14,8.6-37.4-11.2
		S3.6,22.3,5.2,16.4"/>
	<path display="inline" fill="#FFFFFF" d="M14.7,7L24,29l3.8-4.2L20.2,6.7C20.2,6.7,16,5.5,14.7,7z"/>
	<path display="inline" fill="#FFFFFF" d="M72.4,58.3l-22.8-7l3.8-4.2l18.8,5.7C72.2,52.8,73.8,56.9,72.4,58.3z"/>
	
		<line display="inline" fill="none" stroke="#7C5895" stroke-width="2" stroke-linecap="round" stroke-linejoin="round" stroke-miterlimit="10" x1="24" y1="29" x2="14.6" y2="6.7"/>
	
		<path display="inline" fill="none" stroke="#7C5895" stroke-width="2" stroke-linecap="round" stroke-linejoin="round" stroke-miterlimit="10" d="
		M23.4,55.4c29,24.6,43.9,13.6,47.6,8c3.7-5.6,0.7-10.8,0.7-10.8l-18.5-5l-7,7.8C37.4,52.6,31,46.9,31,46.9s-6.4-5.7-10.3-14.2
		l7-7.8L20.6,7.1c0,0-5.5-2.4-10.7,2S-4.4,29.4,23.4,55.4"/>
	
		<line display="inline" fill="none" stroke="#7C5895" stroke-width="2" stroke-linecap="round" stroke-linejoin="round" stroke-miterlimit="10" x1="72.8" y1="58.6" x2="49.6" y2="51.8"/>
	
		<path display="inline" fill="none" stroke="#7C5895" stroke-width="2" stroke-linecap="round" stroke-linejoin="round" stroke-miterlimit="10" d="
		M23.7,44.8c3,3.5,7.7,7.8,14.7,12.4"/>
	
		<path display="inline" fill="none" stroke="#7C5895" stroke-width="2" stroke-linecap="round" stroke-linejoin="round" stroke-miterlimit="10" d="
		M18.3,36.9c0,0,0.6,1.7,2.6,4.5"/>
	
		<line display="inline" fill="none" stroke="#7C5895" stroke-width="2" stroke-linecap="round" stroke-linejoin="round" stroke-miterlimit="10" x1="27.3" y1="6.7" x2="32.4" y2="1"/>
	
		<line display="inline" fill="none" stroke="#7C5895" stroke-width="2" stroke-linecap="round" stroke-linejoin="round" stroke-miterlimit="10" x1="32.8" y1="19.2" x2="40.2" y2="19.4"/>
	
		<line display="inline" fill="none" stroke="#7C5895" stroke-width="2" stroke-linecap="round" stroke-linejoin="round" stroke-miterlimit="10" x1="31.7" y1="11.8" x2="40.9" y2="8.6"/>
	<path display="inline" fill="#F5CF93" d="M50,51.9"/>
</g>
<g id="_x34_" display="none">
	<path display="inline" fill="#F8E2AD" d="M71.4,26H40.6c-2,0-3.6,1.6-3.6,3.6v26.9c0,2,1.6,3.6,3.6,3.6h15c1,2.8,4,7.9,12.5,10
		c-2.8-3.9-3.4-7.4-3.4-10h6.8c2,0,3.6-1.6,3.6-3.6V29.6C75,27.6,73.4,26,71.4,26z"/>
	
		<path display="inline" fill="none" stroke="#7C5895" stroke-width="2" stroke-linecap="round" stroke-linejoin="round" stroke-miterlimit="10" d="
		M71.4,26H40.6c-2,0-3.6,1.6-3.6,3.6v26.9c0,2,1.6,3.6,3.6,3.6h15c1,2.8,4,7.9,12.5,10c-2.8-3.9-3.4-7.4-3.4-10h6.8
		c2,0,3.6-1.6,3.6-3.6V29.6C75,27.6,73.4,26,71.4,26z"/>
	<path display="inline" fill="#C7D2E9" d="M61.5,4h-55C4,4,2,6,2,8.5v37C2,48,4,50,6.5,50h7.9c0,3-0.6,7.1-3.4,11
		c7.8-2.3,12.5-6.5,14.7-11h35.8c2.5,0,4.5-2,4.5-4.5v-37C66,6,64,4,61.5,4z"/>
	<path display="inline" fill="#ABB6CF" d="M2,42.5v3C2,48,4,50,6.5,50h7.9c0,3-0.6,7.1-3.4,11c7.8-2.3,12.5-6.5,14.7-11h35.8
		c2.5,0,4.5-2,4.5-4.5v-3"/>
	
		<path display="inline" fill="none" stroke="#7C5895" stroke-width="2" stroke-linecap="round" stroke-linejoin="round" stroke-miterlimit="10" d="
		M61.5,4h-55C4,4,2,6,2,8.5v37C2,48,4,50,6.5,50h7.9c0,3-0.6,7.1-3.4,11c7.8-2.3,12.5-6.5,14.7-11h35.8c2.5,0,4.5-2,4.5-4.5v-37
		C66,6,64,4,61.5,4z"/>
	
		<line display="inline" fill="none" stroke="#7C5895" stroke-width="2" stroke-linecap="round" stroke-linejoin="round" stroke-miterlimit="10" x1="13" y1="21" x2="38" y2="21"/>
	
		<line display="inline" fill="none" stroke="#7C5895" stroke-width="2" stroke-linecap="round" stroke-linejoin="round" stroke-miterlimit="10" x1="42" y1="21" x2="49" y2="21"/>
	
		<line display="inline" fill="none" stroke="#7C5895" stroke-width="2" stroke-linecap="round" stroke-linejoin="round" stroke-miterlimit="10" x1="13" y1="29" x2="44" y2="29"/>
	
		<line display="inline" fill="none" stroke="#7C5895" stroke-width="2" stroke-linecap="round" stroke-linejoin="round" stroke-miterlimit="10" x1="7" y1="41" x2="7" y2="45"/>
	
		<line display="inline" fill="none" stroke="#7C5895" stroke-width="2" stroke-linecap="round" stroke-linejoin="round" stroke-miterlimit="10" x1="13" y1="41" x2="13" y2="45"/>
	
		<line display="inline" fill="none" stroke="#7C5895" stroke-width="2" stroke-linecap="round" stroke-linejoin="round" stroke-miterlimit="10" x1="19" y1="41" x2="19" y2="45"/>
	
		<line display="inline" fill="none" stroke="#7C5895" stroke-width="2" stroke-linecap="round" stroke-linejoin="round" stroke-miterlimit="10" x1="25" y1="41" x2="25" y2="45"/>
	
		<line display="inline" fill="none" stroke="#7C5895" stroke-width="2" stroke-linecap="round" stroke-linejoin="round" stroke-miterlimit="10" x1="31" y1="41" x2="31" y2="45"/>
	
		<line display="inline" fill="none" stroke="#7C5895" stroke-width="2" stroke-linecap="round" stroke-linejoin="round" stroke-miterlimit="10" x1="37" y1="41" x2="37" y2="45"/>
	
		<line display="inline" fill="none" stroke="#7C5895" stroke-width="2" stroke-linecap="round" stroke-linejoin="round" stroke-miterlimit="10" x1="43" y1="41" x2="43" y2="45"/>
	
		<line display="inline" fill="none" stroke="#7C5895" stroke-width="2" stroke-linecap="round" stroke-linejoin="round" stroke-miterlimit="10" x1="49" y1="41" x2="49" y2="45"/>
	
		<line display="inline" fill="none" stroke="#7C5895" stroke-width="2" stroke-linecap="round" stroke-linejoin="round" stroke-miterlimit="10" x1="55" y1="41" x2="55" y2="45"/>
	
		<line display="inline" fill="none" stroke="#7C5895" stroke-width="2" stroke-linecap="round" stroke-linejoin="round" stroke-miterlimit="10" x1="61" y1="41" x2="61" y2="45"/>
</g>
<g id="_x35_" display="none">
	<g display="inline">
		
			<ellipse transform="matrix(0.7071 -0.7071 0.7071 0.7071 -12.2609 29.6005)" fill="#FFEF98" cx="29.6" cy="29.6" rx="26.5" ry="26.5"/>
		
			<ellipse transform="matrix(0.7071 -0.7071 0.7071 0.7071 -12.2609 29.6005)" fill="none" stroke="#7C5895" stroke-width="2" stroke-linecap="round" stroke-linejoin="round" stroke-miterlimit="10" cx="29.6" cy="29.6" rx="26.5" ry="26.5"/>
		
			<ellipse transform="matrix(0.7071 -0.7071 0.7071 0.7071 -12.2609 29.6005)" fill="#BBDDF8" cx="29.6" cy="29.6" rx="19.5" ry="19.5"/>
		
			<ellipse transform="matrix(0.7071 -0.7071 0.7071 0.7071 -12.2609 29.6005)" fill="none" stroke="#7C5895" stroke-width="2" stroke-linecap="round" stroke-linejoin="round" stroke-miterlimit="10" cx="29.6" cy="29.6" rx="19.5" ry="19.5"/>
		
			<ellipse transform="matrix(0.7071 -0.7071 0.7071 0.7071 -12.2609 29.6005)" fill="#D1ECFE" cx="29.6" cy="29.6" rx="7.5" ry="7.5"/>
		
			<ellipse transform="matrix(0.7071 -0.7071 0.7071 0.7071 -10.7965 26.065)" fill="#FFFFFF" cx="26.1" cy="26.1" rx="4.5" ry="4.5"/>
		<path fill="none" stroke="#7C5895" stroke-width="2" stroke-linecap="round" stroke-linejoin="round" stroke-miterlimit="10" d="
			M19.3,19.3c5.7-5.7,14.8-5.7,20.5,0"/>
		
			<path fill="#CFA4A8" stroke="#7C5895" stroke-width="2" stroke-linecap="round" stroke-linejoin="round" stroke-miterlimit="10" d="
			M68.7,67.6l-1.8,1.8c-1.5,1.5-3.8,1.5-5.3,0L49.9,57.7c-1.5-1.5-1.5-3.8,0-5.3l1.8-1.8c1.5-1.5,3.8-1.5,5.3,0l11.7,11.7
			C70.1,63.8,70.1,66.1,68.7,67.6z"/>
		
			<line fill="#CFA4A8" stroke="#7C5895" stroke-width="2" stroke-linecap="round" stroke-linejoin="round" stroke-miterlimit="10" x1="49" y1="53.8" x2="46" y2="50.7"/>
		
			<line fill="#CFA4A8" stroke="#7C5895" stroke-width="2" stroke-linecap="round" stroke-linejoin="round" stroke-miterlimit="10" x1="53.3" y1="49.6" x2="50.2" y2="46.5"/>
		
			<line fill="#CFA4A8" stroke="#7C5895" stroke-width="2" stroke-linecap="round" stroke-linejoin="round" stroke-miterlimit="10" x1="41.4" y1="29.6" x2="45.2" y2="29.6"/>
		
			<line fill="#CFA4A8" stroke="#7C5895" stroke-width="2" stroke-linecap="round" stroke-linejoin="round" stroke-miterlimit="10" x1="13.3" y1="29.6" x2="17.2" y2="29.6"/>
		
			<line fill="#CFA4A8" stroke="#7C5895" stroke-width="2" stroke-linecap="round" stroke-linejoin="round" stroke-miterlimit="10" x1="14.7" y1="36" x2="18.2" y2="34.5"/>
		
			<line fill="#CFA4A8" stroke="#7C5895" stroke-width="2" stroke-linecap="round" stroke-linejoin="round" stroke-miterlimit="10" x1="18.2" y1="41.1" x2="20.9" y2="38.3"/>
		
			<line fill="#CFA4A8" stroke="#7C5895" stroke-width="2" stroke-linecap="round" stroke-linejoin="round" stroke-miterlimit="10" x1="23.8" y1="44.6" x2="25.1" y2="40.9"/>
		
			<line fill="#CFA4A8" stroke="#7C5895" stroke-width="2" stroke-linecap="round" stroke-linejoin="round" stroke-miterlimit="10" x1="30.1" y1="45.5" x2="29.9" y2="41.6"/>
		
			<line fill="#CFA4A8" stroke="#7C5895" stroke-width="2" stroke-linecap="round" stroke-linejoin="round" stroke-miterlimit="10" x1="35.5" y1="44.2" x2="34" y2="40.7"/>
		
			<line fill="#CFA4A8" stroke="#7C5895" stroke-width="2" stroke-linecap="round" stroke-linejoin="round" stroke-miterlimit="10" x1="40.7" y1="40.7" x2="37.9" y2="38"/>
		
			<line fill="#CFA4A8" stroke="#7C5895" stroke-width="2" stroke-linecap="round" stroke-linejoin="round" stroke-miterlimit="10" x1="44" y1="35.6" x2="40.4" y2="34.1"/>
	</g>
</g>
<g id="_x36_" display="none">
	<path display="inline" fill="#CA9DA4" d="M70,26.2L70,26.2l0-5.8c0-3-2.4-5.4-5.4-5.4H13.9c-3,0-5.4,2.4-5.4,5.4v5.7h0
		C5.4,26.6,3,29.4,3,32.6V40v10.3C3,53.4,5.6,56,8.8,56h60.5c3.2,0,5.8-2.6,5.8-5.8V40v-7.4C75,29.5,72.9,26.9,70,26.2z"/>
	
		<path display="inline" fill="#C8D9F0" stroke="#7C5895" stroke-width="2" stroke-linecap="round" stroke-linejoin="round" stroke-miterlimit="10" d="
		M11.6,56l-0.4,4.5c-0.1,1.4,1,2.5,2.3,2.5h0c0.9,0,1.7-0.5,2.1-1.3l2.9-5.7"/>
	
		<path display="inline" fill="#C8D9F0" stroke="#7C5895" stroke-width="2" stroke-linecap="round" stroke-linejoin="round" stroke-miterlimit="10" d="
		M67.1,56l0.4,4.5c0.1,1.4-1,2.5-2.3,2.5h0c-0.9,0-1.7-0.5-2.1-1.3L60.2,56"/>
	
		<path display="inline" fill="none" stroke="#7C5895" stroke-width="2" stroke-linecap="round" stroke-linejoin="round" stroke-miterlimit="10" d="
		M69.3,56H8.8C5.6,56,3,53.4,3,50.3V40h72v10.3C75,53.4,72.4,56,69.3,56z"/>
	
		<path display="inline" fill="none" stroke="#7C5895" stroke-width="2" stroke-linecap="round" stroke-linejoin="round" stroke-miterlimit="10" d="
		M3,40v-7.4C3,29,6,26,9.6,26h3.7c1.5,0,2.7,1.2,2.7,2.7V40"/>
	
		<path display="inline" fill="none" stroke="#7C5895" stroke-width="2" stroke-linecap="round" stroke-linejoin="round" stroke-miterlimit="10" d="
		M75,40v-7.4c0-3.7-3-6.6-6.6-6.6h-3.7c-1.5,0-2.7,1.2-2.7,2.7V40"/>
	
		<path display="inline" fill="none" stroke="#7C5895" stroke-width="2" stroke-linecap="round" stroke-linejoin="round" stroke-miterlimit="10" d="
		M8.5,26.1v-5.7c0-3,2.4-5.4,5.4-5.4h50.6c3,0,5.4,2.4,5.4,5.4v5.8"/>
	
		<line display="inline" fill="none" stroke="#7C5895" stroke-width="2" stroke-linecap="round" stroke-linejoin="round" stroke-miterlimit="10" x1="4" y1="50.9" x2="61" y2="50.9"/>
	
		<line display="inline" fill="none" stroke="#7C5895" stroke-width="2" stroke-linecap="round" stroke-linejoin="round" stroke-miterlimit="10" x1="65" y1="51" x2="70" y2="51"/>
	<g display="inline">
		
			<line fill="none" stroke="#7C5895" stroke-width="2" stroke-linecap="round" stroke-linejoin="round" stroke-miterlimit="10" x1="24" y1="33" x2="24" y2="36"/>
		
			<line fill="none" stroke="#7C5895" stroke-width="2" stroke-linecap="round" stroke-linejoin="round" stroke-miterlimit="10" x1="30" y1="33" x2="30" y2="36"/>
		
			<line fill="none" stroke="#7C5895" stroke-width="2" stroke-linecap="round" stroke-linejoin="round" stroke-miterlimit="10" x1="36" y1="33" x2="36" y2="36"/>
		
			<line fill="none" stroke="#7C5895" stroke-width="2" stroke-linecap="round" stroke-linejoin="round" stroke-miterlimit="10" x1="42" y1="33" x2="42" y2="36"/>
		
			<line fill="none" stroke="#7C5895" stroke-width="2" stroke-linecap="round" stroke-linejoin="round" stroke-miterlimit="10" x1="48" y1="33" x2="48" y2="36"/>
		
			<line fill="none" stroke="#7C5895" stroke-width="2" stroke-linecap="round" stroke-linejoin="round" stroke-miterlimit="10" x1="54" y1="33" x2="54" y2="36"/>
	</g>
</g>
<g id="_x37_">
	<polygon fill="#EED7BD" points="58,49 58,28 58,9.4 68,9.4 69,49 	"/>
	<rect x="59" y="58" fill="#D0A5A8" width="10" height="9"/>
	<rect x="9" y="39" fill="#F9EEDD" width="49" height="28"/>
	<rect x="9" y="57" fill="#EED7BD" width="49" height="10"/>
	
		<path fill="#BBDEF9" stroke="#7C5895" stroke-width="2" stroke-linecap="round" stroke-linejoin="round" stroke-miterlimit="10" d="
		M28.5,68v-7.8c0-1.8,1.4-3.2,3.2-3.2h3.1c1.8,0,3.2,1.4,3.2,3.2V68"/>
	
		<line fill="none" stroke="#7C5895" stroke-width="2" stroke-linecap="round" stroke-linejoin="round" stroke-miterlimit="10" x1="3" y1="68" x2="75" y2="68"/>
	
		<line fill="none" stroke="#7C5895" stroke-width="2" stroke-linecap="round" stroke-linejoin="round" stroke-miterlimit="10" x1="8.6" y1="68" x2="8.6" y2="39"/>
	
		<line fill="none" stroke="#7C5895" stroke-width="2" stroke-linecap="round" stroke-linejoin="round" stroke-miterlimit="10" x1="58" y1="39" x2="58" y2="68"/>
	
		<polyline fill="#FB7998" stroke="#7C5895" stroke-width="2" stroke-linecap="round" stroke-linejoin="round" stroke-miterlimit="10" points="
		9.3,34 13,27 54,27 58,34 	"/>
	
		<path fill="#FFF28C" stroke="#7C5895" stroke-width="2" stroke-linecap="round" stroke-linejoin="round" stroke-miterlimit="10" d="
		M57.5,39h-49C7.1,39,6,37.9,6,36.5v0C6,35.1,7.1,34,8.5,34h49c1.4,0,2.5,1.1,2.5,2.5v0C60,37.9,58.9,39,57.5,39z"/>
	
		<line fill="none" stroke="#7C5895" stroke-width="2" stroke-linecap="round" stroke-linejoin="round" stroke-miterlimit="10" x1="17" y1="30" x2="17" y2="17"/>
	
		<line fill="none" stroke="#7C5895" stroke-width="2" stroke-linecap="round" stroke-linejoin="round" stroke-miterlimit="10" x1="22" y1="30" x2="22" y2="23"/>
	
		<path fill="#FAE08F" stroke="#7C5895" stroke-width="2" stroke-linecap="round" stroke-linejoin="round" stroke-miterlimit="10" d="
		M68,9H57c-1.1,0-2-0.9-2-2v0c0-1.1,0.9-2,2-2h11c1.1,0,2,0.9,2,2v0C70,8.1,69.1,9,68,9z"/>
	
		<line fill="none" stroke="#7C5895" stroke-width="2" stroke-linecap="round" stroke-linejoin="round" stroke-miterlimit="10" x1="70" y1="68" x2="68" y2="9"/>
	
		<line fill="none" stroke="#7C5895" stroke-width="2" stroke-linecap="round" stroke-linejoin="round" stroke-miterlimit="10" x1="58" y1="9" x2="57.6" y2="33.3"/>
	
		<polygon fill="#EE7799" stroke="#7C5895" stroke-width="2" stroke-linecap="round" stroke-linejoin="round" stroke-miterlimit="10" points="
		69,49.3 58,49.3 58,57 69.6,57 	"/>
	<g>
		
			<line fill="none" stroke="#7C5895" stroke-width="2" stroke-linecap="round" stroke-linejoin="round" stroke-miterlimit="10" x1="13" y1="45" x2="16" y2="45"/>
		
			<line fill="none" stroke="#7C5895" stroke-width="2" stroke-linecap="round" stroke-linejoin="round" stroke-miterlimit="10" x1="19" y1="45" x2="22" y2="45"/>
		
			<line fill="none" stroke="#7C5895" stroke-width="2" stroke-linecap="round" stroke-linejoin="round" stroke-miterlimit="10" x1="13" y1="50" x2="16" y2="50"/>
		
			<line fill="none" stroke="#7C5895" stroke-width="2" stroke-linecap="round" stroke-linejoin="round" stroke-miterlimit="10" x1="19" y1="50" x2="22" y2="50"/>
	</g>
	<g>
		
			<line fill="none" stroke="#7C5895" stroke-width="2" stroke-linecap="round" stroke-linejoin="round" stroke-miterlimit="10" x1="29" y1="45" x2="32" y2="45"/>
		
			<line fill="none" stroke="#7C5895" stroke-width="2" stroke-linecap="round" stroke-linejoin="round" stroke-miterlimit="10" x1="35" y1="45" x2="38" y2="45"/>
		
			<line fill="none" stroke="#7C5895" stroke-width="2" stroke-linecap="round" stroke-linejoin="round" stroke-miterlimit="10" x1="29" y1="50" x2="32" y2="50"/>
		
			<line fill="none" stroke="#7C5895" stroke-width="2" stroke-linecap="round" stroke-linejoin="round" stroke-miterlimit="10" x1="35" y1="50" x2="38" y2="50"/>
	</g>
	<g>
		
			<line fill="none" stroke="#7C5895" stroke-width="2" stroke-linecap="round" stroke-linejoin="round" stroke-miterlimit="10" x1="45" y1="45" x2="48" y2="45"/>
		
			<line fill="none" stroke="#7C5895" stroke-width="2" stroke-linecap="round" stroke-linejoin="round" stroke-miterlimit="10" x1="51" y1="45" x2="54" y2="45"/>
		
			<line fill="none" stroke="#7C5895" stroke-width="2" stroke-linecap="round" stroke-linejoin="round" stroke-miterlimit="10" x1="45" y1="50" x2="48" y2="50"/>
		
			<line fill="none" stroke="#7C5895" stroke-width="2" stroke-linecap="round" stroke-linejoin="round" stroke-miterlimit="10" x1="51" y1="50" x2="54" y2="50"/>
	</g>
	<g>
		
			<line fill="none" stroke="#7C5895" stroke-width="2" stroke-linecap="round" stroke-linejoin="round" stroke-miterlimit="10" x1="13" y1="56" x2="16" y2="56"/>
		
			<line fill="none" stroke="#7C5895" stroke-width="2" stroke-linecap="round" stroke-linejoin="round" stroke-miterlimit="10" x1="19" y1="56" x2="22" y2="56"/>
		
			<line fill="none" stroke="#7C5895" stroke-width="2" stroke-linecap="round" stroke-linejoin="round" stroke-miterlimit="10" x1="13" y1="61" x2="16" y2="61"/>
		
			<line fill="none" stroke="#7C5895" stroke-width="2" stroke-linecap="round" stroke-linejoin="round" stroke-miterlimit="10" x1="19" y1="61" x2="22" y2="61"/>
	</g>
	<g>
		
			<line fill="none" stroke="#7C5895" stroke-width="2" stroke-linecap="round" stroke-linejoin="round" stroke-miterlimit="10" x1="45" y1="56" x2="48" y2="56"/>
		
			<line fill="none" stroke="#7C5895" stroke-width="2" stroke-linecap="round" stroke-linejoin="round" stroke-miterlimit="10" x1="51" y1="56" x2="54" y2="56"/>
		
			<line fill="none" stroke="#7C5895" stroke-width="2" stroke-linecap="round" stroke-linejoin="round" stroke-miterlimit="10" x1="45" y1="61" x2="48" y2="61"/>
		
			<line fill="none" stroke="#7C5895" stroke-width="2" stroke-linecap="round" stroke-linejoin="round" stroke-miterlimit="10" x1="51" y1="61" x2="54" y2="61"/>
	</g>
</g>
</svg>
