<svg xmlns="http://www.w3.org/2000/svg" viewBox="0 0 77 73"><path fill="#EED7BD" d="M58 49V9.4h10L69 49z"/><path fill="#D0A5A8" d="M59 58h10v9H59z"/><path fill="#F9EEDD" d="M9 39h49v28H9z"/><path fill="#EED7BD" d="M9 57h49v10H9z"/><path fill="#BBDEF9" stroke="#7C5895" stroke-width="2" stroke-linecap="round" stroke-linejoin="round" stroke-miterlimit="10" d="M28.5 68v-7.8c0-1.8 1.4-3.2 3.2-3.2h3.1c1.8 0 3.2 1.4 3.2 3.2V68"/><path fill="none" stroke="#7C5895" stroke-width="2" stroke-linecap="round" stroke-linejoin="round" stroke-miterlimit="10" d="M3 68h72M8.6 68V39M58 39v29"/><path fill="#FB7998" stroke="#7C5895" stroke-width="2" stroke-linecap="round" stroke-linejoin="round" stroke-miterlimit="10" d="M9.3 34l3.7-7h41l4 7"/><path fill="#FFF28C" stroke="#7C5895" stroke-width="2" stroke-linecap="round" stroke-linejoin="round" stroke-miterlimit="10" d="M57.5 39h-49C7.1 39 6 37.9 6 36.5S7.1 34 8.5 34h49c1.4 0 2.5 1.1 2.5 2.5S58.9 39 57.5 39z"/><path fill="none" stroke="#7C5895" stroke-width="2" stroke-linecap="round" stroke-linejoin="round" stroke-miterlimit="10" d="M17 30V17m5 13v-7"/><path fill="#FAE08F" stroke="#7C5895" stroke-width="2" stroke-linecap="round" stroke-linejoin="round" stroke-miterlimit="10" d="M68 9H57c-1.1 0-2-.9-2-2s.9-2 2-2h11c1.1 0 2 .9 2 2s-.9 2-2 2z"/><path fill="none" stroke="#7C5895" stroke-width="2" stroke-linecap="round" stroke-linejoin="round" stroke-miterlimit="10" d="M70 68L68 9M58 9l-.4 24.3"/><path fill="#E79" stroke="#7C5895" stroke-width="2" stroke-linecap="round" stroke-linejoin="round" stroke-miterlimit="10" d="M69 49.3H58V57h11.6z"/><path d="M13 45h3m3 0h3m-9 5h3m3 0h3m7-5h3m3 0h3m-9 5h3m3 0h3m7-5h3m3 0h3m-9 5h3m3 0h3m-41 6h3m3 0h3m-9 5h3m3 0h3m23-5h3m3 0h3m-9 5h3m3 0h3" fill="none" stroke="#7C5895" stroke-width="2" stroke-linecap="round" stroke-linejoin="round" stroke-miterlimit="10"/></svg>