<svg xmlns="http://www.w3.org/2000/svg" viewBox="0 0 77 73"><g stroke="#7C5895" stroke-width="2" stroke-linecap="round" stroke-linejoin="round" stroke-miterlimit="10"><path fill="#D7AFB8" d="M67 38H11c-1.7 0-3-1.3-3-3s1.3-3 3-3h56c1.7 0 3 1.3 3 3s-1.3 3-3 3z"/><path fill="#F8E2AE" d="M48 18c0 5-4 9-9 9s-9-4-9-9c0-6 9-11 9-14 0 3 9 8 9 14z"/><path fill="#D7E8F8" d="M39 4c-3.3 0-6 2.7-6 6v1h12v-1c0-3.3-2.7-6-6-6z"/><path fill="none" d="M36 17l3-2v-4m3 6l-3-2"/><path fill="#CCA0A6" d="M15.1 38L9.6 67.9c-.3 1.6 1 3.1 2.6 3.1 1.1 0 2.1-.7 2.5-1.7L23 48h32l8.3 21.3c.4 1 1.4 1.7 2.5 1.7 1.7 0 2.9-1.5 2.6-3.1L62.9 38"/><path fill="none" d="M20.3 54.8H45m4 .2h4M17 41v3m5-3v3m5-3v3m5-3v3m5-3v3m5-3v3m5-3v3m5-3v3m5-3v3m5-3v3"/><path fill="#CCA0A6" d="M27 14l-4-3m2 8h-6m8 6l-4 2m29-13l4-3m-2 8h6m-8 6l4 2"/></g></svg>